<svg width="15" height="22" fill="none" xmlns="http://www.w3.org/2000/svg"><path d="M7.5 21.058l-.462-.52C6.75 20.25 0 12.288 0 7.5 0 3.346 3.346 0 7.5 0S15 3.346 15 7.5c0 4.789-6.75 12.75-7.038 13.096l-.462.462zm0-19.904A6.328 6.328 0 001.154 7.5c0 3.692 4.846 9.923 6.346 11.77 1.5-1.847 6.346-8.078 6.346-11.77A6.328 6.328 0 007.5 1.154z" fill="#F54F4F"/><path d="M7.5 10.384A2.857 2.857 0 014.615 7.5 2.857 2.857 0 017.5 4.615 2.857 2.857 0 0110.384 7.5 2.857 2.857 0 017.5 10.384zm0-4.615A1.7 1.7 0 005.77 7.5 1.7 1.7 0 007.5 9.232 1.7 1.7 0 009.23 7.5 1.7 1.7 0 007.5 5.77z" fill="#F54F4F"/></svg>