<svg width="41" height="41" fill="none" xmlns="http://www.w3.org/2000/svg"><path d="M27.867 19.219h-6.086v-6.086a.321.321 0 00-.32-.32h-1.922a.321.321 0 00-.32.32v6.086h-6.086a.321.321 0 00-.32.32v1.922c0 .176.144.32.32.32h6.086v6.086c0 .176.144.32.32.32h1.922a.32.32 0 00.32-.32v-6.086h6.086a.32.32 0 00.32-.32v-1.922a.321.321 0 00-.32-.32z" fill="#fff"/><path d="M20.5 2.563c-9.906 0-17.938 8.031-17.938 17.937S10.595 38.438 20.5 38.438c9.906 0 17.938-8.032 17.938-17.938 0-9.906-8.032-17.938-17.938-17.938zm0 32.831c-8.224 0-14.895-6.67-14.895-14.894S12.276 5.605 20.5 5.605 35.395 12.276 35.395 20.5 28.724 35.395 20.5 35.395z" fill="#fff"/></svg>